<?xml version="1.0" encoding="UTF-8" standalone="no"?>
<!-- Created with Inkscape (http://www.inkscape.org/) -->

<svg
   xmlns:dc="http://purl.org/dc/elements/1.1/"
   xmlns:cc="http://creativecommons.org/ns#"
   xmlns:rdf="http://www.w3.org/1999/02/22-rdf-syntax-ns#"
   xmlns:svg="http://www.w3.org/2000/svg"
   xmlns="http://www.w3.org/2000/svg"
   xmlns:sodipodi="http://sodipodi.sourceforge.net/DTD/sodipodi-0.dtd"
   xmlns:inkscape="http://www.inkscape.org/namespaces/inkscape"
   width="398.53857"
   height="365.19196"
   id="svg2"
   version="1.1"
   inkscape:version="0.48.5 r10040"
   sodipodi:docname="image-links-logo.svg">
  <defs
     id="defs4" />
  <sodipodi:namedview
     id="base"
     pagecolor="#ffffff"
     bordercolor="#666666"
     borderopacity="1.0"
     inkscape:pageopacity="0.0"
     inkscape:pageshadow="2"
     inkscape:zoom="0.60283615"
     inkscape:cx="-74.628712"
     inkscape:cy="-48.477551"
     inkscape:document-units="px"
     inkscape:current-layer="layer2"
     showgrid="false"
     inkscape:window-width="1920"
     inkscape:window-height="1051"
     inkscape:window-x="0"
     inkscape:window-y="27"
     inkscape:window-maximized="1"
     fit-margin-top="0"
     fit-margin-left="0"
     fit-margin-right="0"
     fit-margin-bottom="0" />
  <metadata
     id="metadata7">
    <rdf:RDF>
      <cc:Work
         rdf:about="">
        <dc:format>image/svg+xml</dc:format>
        <dc:type
           rdf:resource="http://purl.org/dc/dcmitype/StillImage" />
        <dc:title></dc:title>
      </cc:Work>
    </rdf:RDF>
  </metadata>
  <g
     inkscape:label="bg"
     inkscape:groupmode="layer"
     id="layer1"
     transform="translate(-383.37685,2100.2177)"
     sodipodi:insensitive="true"
     style="display:none">
    <rect
       style="fill:#37474f;fill-opacity:1;stroke:none"
       id="rect2984"
       width="1920"
       height="3400"
       x="0"
       y="-2347.6377" />
  </g>
  <g
     inkscape:groupmode="layer"
     id="layer2"
     inkscape:label="Layer"
     transform="translate(-383.37685,-247.42012)">
    <text
       xml:space="preserve"
       style="font-size:32px;font-style:normal;font-variant:normal;font-weight:500;font-stretch:normal;line-height:109.00000334000000635%;letter-spacing:0px;word-spacing:0px;fill:#3c4e61;fill-opacity:1;stroke:none;font-family:Orbitron;-inkscape-font-specification:Orbitron Medium"
       x="581.35406"
       y="606.11407"
       id="text3181-2"
       sodipodi:linespacing="109%"><tspan
         sodipodi:role="line"
         x="581.35406"
         y="606.11407"
         id="tspan3185-0"
         style="font-size:36px;font-style:normal;font-variant:normal;font-weight:bold;font-stretch:normal;text-align:center;line-height:109.00000334000000635%;text-anchor:middle;font-family:Lato;-inkscape-font-specification:Lato Bold;fill:#3c4e61;fill-opacity:1">Image Link With Content</tspan></text>
    <g
       id="g4404"
       transform="matrix(0.93750004,0,0,0.93750004,-382.23184,17.41804)">
      <path
         transform="matrix(1.0021172,0,0,1.0021172,354.92098,262.53922)"
         d="m 831.90103,142.49463 c 0,88.17886 -71.48309,159.66196 -159.66196,159.66196 -88.17886,0 -159.66195,-71.4831 -159.66195,-159.66196 0,-88.178865 71.48309,-159.661958 159.66195,-159.661958 88.17887,0 159.66196,71.483093 159.66196,159.661958 z"
         sodipodi:ry="159.66196"
         sodipodi:rx="159.66196"
         sodipodi:cy="142.49463"
         sodipodi:cx="672.23907"
         id="path3025"
         style="fill:#3c4e61;fill-opacity:1;stroke:none"
         sodipodi:type="arc" />
      <path
         transform="matrix(0.93948492,0,0,0.93948492,397.02485,271.46398)"
         d="m 831.90103,142.49463 c 0,88.17886 -71.48309,159.66196 -159.66196,159.66196 -88.17886,0 -159.66195,-71.4831 -159.66195,-159.66196 0,-88.178865 71.48309,-159.661958 159.66195,-159.661958 88.17887,0 159.66196,71.483093 159.66196,159.661958 z"
         sodipodi:ry="159.66196"
         sodipodi:rx="159.66196"
         sodipodi:cy="142.49463"
         sodipodi:cx="672.23907"
         id="path3025-3"
         style="fill:#ede7f6;fill-opacity:1;stroke:none"
         sodipodi:type="arc" />
      <path
         style="fill:#3c4e61;fill-opacity:1"
         inkscape:connector-curvature="0"
         id="path994"
         d="m 1060.9898,382.00234 c 0,1.84022 -1.4934,3.3332 -3.3333,3.3332 h -83.3332 c -1.84362,0 -3.33328,-1.49298 -3.33328,-3.3332 0,-1.83985 1.48966,-3.3332 3.33328,-3.3332 h 83.3332 c 1.8433,0 3.3333,1.49335 3.3333,3.3332 z m -86.66642,-23.3336 c -1.84363,0 -3.33329,-1.49336 -3.33329,-3.3332 0,-1.83984 1.48966,-3.3332 3.33329,-3.3332 h 33.33312 c 1.8433,0 3.3333,1.49336 3.3333,3.3332 0,1.83985 -1.49,3.3332 -3.3333,3.3332 h -33.33312 z m 63.33312,46.6668 c 1.8404,0 3.3333,1.49336 3.3333,3.3332 0,1.84024 -1.49,3.3336 -3.3333,3.3336 h -63.33312 c -1.84363,0 -3.33329,-1.49336 -3.33329,-3.3336 0,-1.83984 1.48966,-3.3332 3.33329,-3.3332 h 63.33312 z m 3.3333,30 c 0,1.84024 -1.4931,3.3332 -3.3333,3.3332 h -63.3332 c -1.84362,0 -3.33328,-1.49296 -3.33328,-3.3332 0,-1.83985 1.48966,-3.3332 3.33328,-3.3332 h 63.3332 c 1.8433,0 3.3333,1.49336 3.3333,3.3332 z m -66.66642,23.3332 h 53.33312 c 1.8433,0 3.3333,1.49375 3.3333,3.3336 0,1.84022 -1.49,3.3332 -3.3333,3.3332 h -53.33312 c -1.84363,0 -3.33328,-1.49298 -3.33328,-3.3332 0,-1.83985 1.48965,-3.3336 3.33328,-3.3336 z m -30.00043,-146.6668 v 186.6668 h 123.33335 v 6.6668 H 937.65615 v -200 h 108.04705 l 48.6202,48.61992 v 81.38008 h -6.667 v -76.6668 h -46.6667 v -46.6668 h -96.6669 z m 103.33355,4.71367 v 35.28673 h 35.2868 z m 70.8767,176.26329 c 1.3031,1.30313 1.3031,3.41015 0,4.71366 -0.65,0.64962 -1.5034,0.97657 -2.3568,0.97657 -0.8532,0 -1.7031,-0.32695 -2.3567,-0.97695 l -22.6565,-22.65664 -10.8037,21.61327 -21.6632,-58.78983 58.7901,21.65976 -21.6101,10.80351 z m -48.5863,-43.87344 11.3365,30.77695 6.48,-12.96016 12.9566,-6.47969 z"
         unicode=""
         path-name="uniF191" />
    </g>
  </g>
</svg>
